<mxfile host="app.diagrams.net" modified="2022-04-09T12:33:41.118Z" agent="5.0 (Windows NT 10.0; Win64; x64) AppleWebKit/537.36 (KHTML, like Gecko) Chrome/97.0.4692.71 Safari/537.36" etag="nIzIpMVHERN3-UcCMKTD" version="17.2.4" type="github">
  <diagram id="I-_upnVEL1xlgbYFvQxW" name="桥接模式">
    <mxGraphModel dx="2249" dy="706" grid="1" gridSize="10" guides="1" tooltips="1" connect="1" arrows="1" fold="1" page="1" pageScale="1" pageWidth="827" pageHeight="1169" math="0" shadow="0">
      <root>
        <mxCell id="0" />
        <mxCell id="1" parent="0" />
        <mxCell id="5MIrh7B_1ySHlBS4qivb-1" value="操作系统" style="swimlane;fontStyle=1;align=center;verticalAlign=top;childLayout=stackLayout;horizontal=1;startSize=26;horizontalStack=0;resizeParent=1;resizeParentMax=0;resizeLast=0;collapsible=1;marginBottom=0;" vertex="1" parent="1">
          <mxGeometry x="30" y="40" width="120" height="60" as="geometry" />
        </mxCell>
        <mxCell id="5MIrh7B_1ySHlBS4qivb-2" value="+ " style="text;strokeColor=none;fillColor=none;align=left;verticalAlign=top;spacingLeft=4;spacingRight=4;overflow=hidden;rotatable=0;points=[[0,0.5],[1,0.5]];portConstraint=eastwest;" vertex="1" parent="5MIrh7B_1ySHlBS4qivb-1">
          <mxGeometry y="26" width="120" height="26" as="geometry" />
        </mxCell>
        <mxCell id="5MIrh7B_1ySHlBS4qivb-3" value="" style="line;strokeWidth=1;fillColor=none;align=left;verticalAlign=middle;spacingTop=-1;spacingLeft=3;spacingRight=3;rotatable=0;labelPosition=right;points=[];portConstraint=eastwest;" vertex="1" parent="5MIrh7B_1ySHlBS4qivb-1">
          <mxGeometry y="52" width="120" height="8" as="geometry" />
        </mxCell>
        <mxCell id="5MIrh7B_1ySHlBS4qivb-14" style="edgeStyle=orthogonalEdgeStyle;rounded=0;orthogonalLoop=1;jettySize=auto;html=1;exitX=0.5;exitY=0;exitDx=0;exitDy=0;startArrow=none;startFill=0;endArrow=block;endFill=0;" edge="1" parent="1" source="5MIrh7B_1ySHlBS4qivb-5">
          <mxGeometry relative="1" as="geometry">
            <mxPoint x="90" y="100" as="targetPoint" />
          </mxGeometry>
        </mxCell>
        <mxCell id="5MIrh7B_1ySHlBS4qivb-5" value="Windows" style="swimlane;fontStyle=1;align=center;verticalAlign=top;childLayout=stackLayout;horizontal=1;startSize=26;horizontalStack=0;resizeParent=1;resizeParentMax=0;resizeLast=0;collapsible=1;marginBottom=0;" vertex="1" parent="1">
          <mxGeometry x="-140" y="150" width="120" height="60" as="geometry" />
        </mxCell>
        <mxCell id="5MIrh7B_1ySHlBS4qivb-6" value="+ " style="text;strokeColor=none;fillColor=none;align=left;verticalAlign=top;spacingLeft=4;spacingRight=4;overflow=hidden;rotatable=0;points=[[0,0.5],[1,0.5]];portConstraint=eastwest;" vertex="1" parent="5MIrh7B_1ySHlBS4qivb-5">
          <mxGeometry y="26" width="120" height="26" as="geometry" />
        </mxCell>
        <mxCell id="5MIrh7B_1ySHlBS4qivb-7" value="" style="line;strokeWidth=1;fillColor=none;align=left;verticalAlign=middle;spacingTop=-1;spacingLeft=3;spacingRight=3;rotatable=0;labelPosition=right;points=[];portConstraint=eastwest;" vertex="1" parent="5MIrh7B_1ySHlBS4qivb-5">
          <mxGeometry y="52" width="120" height="8" as="geometry" />
        </mxCell>
        <mxCell id="5MIrh7B_1ySHlBS4qivb-15" style="edgeStyle=orthogonalEdgeStyle;rounded=0;orthogonalLoop=1;jettySize=auto;html=1;exitX=0.5;exitY=0;exitDx=0;exitDy=0;entryX=0.5;entryY=1;entryDx=0;entryDy=0;startArrow=none;startFill=0;endArrow=block;endFill=0;" edge="1" parent="1" source="5MIrh7B_1ySHlBS4qivb-8" target="5MIrh7B_1ySHlBS4qivb-1">
          <mxGeometry relative="1" as="geometry" />
        </mxCell>
        <mxCell id="5MIrh7B_1ySHlBS4qivb-8" value="Linux" style="swimlane;fontStyle=1;align=center;verticalAlign=top;childLayout=stackLayout;horizontal=1;startSize=26;horizontalStack=0;resizeParent=1;resizeParentMax=0;resizeLast=0;collapsible=1;marginBottom=0;" vertex="1" parent="1">
          <mxGeometry x="140" y="150" width="120" height="60" as="geometry" />
        </mxCell>
        <mxCell id="5MIrh7B_1ySHlBS4qivb-9" value="+ " style="text;strokeColor=none;fillColor=none;align=left;verticalAlign=top;spacingLeft=4;spacingRight=4;overflow=hidden;rotatable=0;points=[[0,0.5],[1,0.5]];portConstraint=eastwest;" vertex="1" parent="5MIrh7B_1ySHlBS4qivb-8">
          <mxGeometry y="26" width="120" height="26" as="geometry" />
        </mxCell>
        <mxCell id="5MIrh7B_1ySHlBS4qivb-10" value="" style="line;strokeWidth=1;fillColor=none;align=left;verticalAlign=middle;spacingTop=-1;spacingLeft=3;spacingRight=3;rotatable=0;labelPosition=right;points=[];portConstraint=eastwest;" vertex="1" parent="5MIrh7B_1ySHlBS4qivb-8">
          <mxGeometry y="52" width="120" height="8" as="geometry" />
        </mxCell>
        <mxCell id="5MIrh7B_1ySHlBS4qivb-23" style="edgeStyle=orthogonalEdgeStyle;rounded=0;orthogonalLoop=1;jettySize=auto;html=1;exitX=0.5;exitY=0;exitDx=0;exitDy=0;entryX=0.5;entryY=1;entryDx=0;entryDy=0;startArrow=none;startFill=0;endArrow=block;endFill=0;" edge="1" parent="1" source="5MIrh7B_1ySHlBS4qivb-17" target="5MIrh7B_1ySHlBS4qivb-5">
          <mxGeometry relative="1" as="geometry" />
        </mxCell>
        <mxCell id="5MIrh7B_1ySHlBS4qivb-17" value="Windows图片处理器" style="swimlane;fontStyle=1;align=center;verticalAlign=top;childLayout=stackLayout;horizontal=1;startSize=26;horizontalStack=0;resizeParent=1;resizeParentMax=0;resizeLast=0;collapsible=1;marginBottom=0;" vertex="1" parent="1">
          <mxGeometry x="-220" y="270" width="120" height="60" as="geometry" />
        </mxCell>
        <mxCell id="5MIrh7B_1ySHlBS4qivb-18" value="+ " style="text;strokeColor=none;fillColor=none;align=left;verticalAlign=top;spacingLeft=4;spacingRight=4;overflow=hidden;rotatable=0;points=[[0,0.5],[1,0.5]];portConstraint=eastwest;" vertex="1" parent="5MIrh7B_1ySHlBS4qivb-17">
          <mxGeometry y="26" width="120" height="26" as="geometry" />
        </mxCell>
        <mxCell id="5MIrh7B_1ySHlBS4qivb-19" value="" style="line;strokeWidth=1;fillColor=none;align=left;verticalAlign=middle;spacingTop=-1;spacingLeft=3;spacingRight=3;rotatable=0;labelPosition=right;points=[];portConstraint=eastwest;" vertex="1" parent="5MIrh7B_1ySHlBS4qivb-17">
          <mxGeometry y="52" width="120" height="8" as="geometry" />
        </mxCell>
        <mxCell id="5MIrh7B_1ySHlBS4qivb-25" style="edgeStyle=orthogonalEdgeStyle;rounded=0;orthogonalLoop=1;jettySize=auto;html=1;exitX=0.5;exitY=0;exitDx=0;exitDy=0;startArrow=none;startFill=0;endArrow=block;endFill=0;" edge="1" parent="1" source="5MIrh7B_1ySHlBS4qivb-20">
          <mxGeometry relative="1" as="geometry">
            <mxPoint x="-80" y="210" as="targetPoint" />
          </mxGeometry>
        </mxCell>
        <mxCell id="5MIrh7B_1ySHlBS4qivb-20" value="Windows文本编辑器" style="swimlane;fontStyle=1;align=center;verticalAlign=top;childLayout=stackLayout;horizontal=1;startSize=26;horizontalStack=0;resizeParent=1;resizeParentMax=0;resizeLast=0;collapsible=1;marginBottom=0;" vertex="1" parent="1">
          <mxGeometry x="-80" y="270" width="120" height="60" as="geometry" />
        </mxCell>
        <mxCell id="5MIrh7B_1ySHlBS4qivb-21" value="+ " style="text;strokeColor=none;fillColor=none;align=left;verticalAlign=top;spacingLeft=4;spacingRight=4;overflow=hidden;rotatable=0;points=[[0,0.5],[1,0.5]];portConstraint=eastwest;" vertex="1" parent="5MIrh7B_1ySHlBS4qivb-20">
          <mxGeometry y="26" width="120" height="26" as="geometry" />
        </mxCell>
        <mxCell id="5MIrh7B_1ySHlBS4qivb-22" value="" style="line;strokeWidth=1;fillColor=none;align=left;verticalAlign=middle;spacingTop=-1;spacingLeft=3;spacingRight=3;rotatable=0;labelPosition=right;points=[];portConstraint=eastwest;" vertex="1" parent="5MIrh7B_1ySHlBS4qivb-20">
          <mxGeometry y="52" width="120" height="8" as="geometry" />
        </mxCell>
        <mxCell id="5MIrh7B_1ySHlBS4qivb-38" style="edgeStyle=orthogonalEdgeStyle;rounded=0;orthogonalLoop=1;jettySize=auto;html=1;exitX=0.5;exitY=0;exitDx=0;exitDy=0;entryX=0.5;entryY=1;entryDx=0;entryDy=0;startArrow=none;startFill=0;endArrow=block;endFill=0;" edge="1" parent="1" source="5MIrh7B_1ySHlBS4qivb-26" target="5MIrh7B_1ySHlBS4qivb-8">
          <mxGeometry relative="1" as="geometry" />
        </mxCell>
        <mxCell id="5MIrh7B_1ySHlBS4qivb-26" value="Linux图片处理器" style="swimlane;fontStyle=1;align=center;verticalAlign=top;childLayout=stackLayout;horizontal=1;startSize=26;horizontalStack=0;resizeParent=1;resizeParentMax=0;resizeLast=0;collapsible=1;marginBottom=0;" vertex="1" parent="1">
          <mxGeometry x="60" y="270" width="120" height="60" as="geometry" />
        </mxCell>
        <mxCell id="5MIrh7B_1ySHlBS4qivb-27" value="+ " style="text;strokeColor=none;fillColor=none;align=left;verticalAlign=top;spacingLeft=4;spacingRight=4;overflow=hidden;rotatable=0;points=[[0,0.5],[1,0.5]];portConstraint=eastwest;" vertex="1" parent="5MIrh7B_1ySHlBS4qivb-26">
          <mxGeometry y="26" width="120" height="26" as="geometry" />
        </mxCell>
        <mxCell id="5MIrh7B_1ySHlBS4qivb-28" value="" style="line;strokeWidth=1;fillColor=none;align=left;verticalAlign=middle;spacingTop=-1;spacingLeft=3;spacingRight=3;rotatable=0;labelPosition=right;points=[];portConstraint=eastwest;" vertex="1" parent="5MIrh7B_1ySHlBS4qivb-26">
          <mxGeometry y="52" width="120" height="8" as="geometry" />
        </mxCell>
        <mxCell id="5MIrh7B_1ySHlBS4qivb-39" style="edgeStyle=orthogonalEdgeStyle;rounded=0;orthogonalLoop=1;jettySize=auto;html=1;exitX=0.5;exitY=0;exitDx=0;exitDy=0;startArrow=none;startFill=0;endArrow=block;endFill=0;" edge="1" parent="1" source="5MIrh7B_1ySHlBS4qivb-29">
          <mxGeometry relative="1" as="geometry">
            <mxPoint x="200" y="210" as="targetPoint" />
          </mxGeometry>
        </mxCell>
        <mxCell id="5MIrh7B_1ySHlBS4qivb-29" value="Linux文本编辑器" style="swimlane;fontStyle=1;align=center;verticalAlign=top;childLayout=stackLayout;horizontal=1;startSize=26;horizontalStack=0;resizeParent=1;resizeParentMax=0;resizeLast=0;collapsible=1;marginBottom=0;" vertex="1" parent="1">
          <mxGeometry x="220" y="270" width="120" height="60" as="geometry" />
        </mxCell>
        <mxCell id="5MIrh7B_1ySHlBS4qivb-30" value="+ " style="text;strokeColor=none;fillColor=none;align=left;verticalAlign=top;spacingLeft=4;spacingRight=4;overflow=hidden;rotatable=0;points=[[0,0.5],[1,0.5]];portConstraint=eastwest;" vertex="1" parent="5MIrh7B_1ySHlBS4qivb-29">
          <mxGeometry y="26" width="120" height="26" as="geometry" />
        </mxCell>
        <mxCell id="5MIrh7B_1ySHlBS4qivb-31" value="" style="line;strokeWidth=1;fillColor=none;align=left;verticalAlign=middle;spacingTop=-1;spacingLeft=3;spacingRight=3;rotatable=0;labelPosition=right;points=[];portConstraint=eastwest;" vertex="1" parent="5MIrh7B_1ySHlBS4qivb-29">
          <mxGeometry y="52" width="120" height="8" as="geometry" />
        </mxCell>
        <mxCell id="5MIrh7B_1ySHlBS4qivb-43" style="edgeStyle=orthogonalEdgeStyle;rounded=0;orthogonalLoop=1;jettySize=auto;html=1;startArrow=none;startFill=0;endArrow=block;endFill=0;exitX=0.5;exitY=0;exitDx=0;exitDy=0;" edge="1" parent="1" source="5MIrh7B_1ySHlBS4qivb-32">
          <mxGeometry relative="1" as="geometry">
            <mxPoint x="700" y="100" as="targetPoint" />
          </mxGeometry>
        </mxCell>
        <mxCell id="5MIrh7B_1ySHlBS4qivb-32" value="图片处理器" style="swimlane;fontStyle=1;align=center;verticalAlign=top;childLayout=stackLayout;horizontal=1;startSize=26;horizontalStack=0;resizeParent=1;resizeParentMax=0;resizeLast=0;collapsible=1;marginBottom=0;" vertex="1" parent="1">
          <mxGeometry x="480" y="150" width="120" height="60" as="geometry" />
        </mxCell>
        <mxCell id="5MIrh7B_1ySHlBS4qivb-33" value="+ " style="text;strokeColor=none;fillColor=none;align=left;verticalAlign=top;spacingLeft=4;spacingRight=4;overflow=hidden;rotatable=0;points=[[0,0.5],[1,0.5]];portConstraint=eastwest;" vertex="1" parent="5MIrh7B_1ySHlBS4qivb-32">
          <mxGeometry y="26" width="120" height="26" as="geometry" />
        </mxCell>
        <mxCell id="5MIrh7B_1ySHlBS4qivb-34" value="" style="line;strokeWidth=1;fillColor=none;align=left;verticalAlign=middle;spacingTop=-1;spacingLeft=3;spacingRight=3;rotatable=0;labelPosition=right;points=[];portConstraint=eastwest;" vertex="1" parent="5MIrh7B_1ySHlBS4qivb-32">
          <mxGeometry y="52" width="120" height="8" as="geometry" />
        </mxCell>
        <mxCell id="5MIrh7B_1ySHlBS4qivb-44" style="edgeStyle=orthogonalEdgeStyle;rounded=0;orthogonalLoop=1;jettySize=auto;html=1;entryX=0.45;entryY=0.875;entryDx=0;entryDy=0;startArrow=none;startFill=0;endArrow=block;endFill=0;entryPerimeter=0;" edge="1" parent="1" source="5MIrh7B_1ySHlBS4qivb-35" target="5MIrh7B_1ySHlBS4qivb-42">
          <mxGeometry relative="1" as="geometry" />
        </mxCell>
        <mxCell id="5MIrh7B_1ySHlBS4qivb-35" value="文本编辑器" style="swimlane;fontStyle=1;align=center;verticalAlign=top;childLayout=stackLayout;horizontal=1;startSize=26;horizontalStack=0;resizeParent=1;resizeParentMax=0;resizeLast=0;collapsible=1;marginBottom=0;" vertex="1" parent="1">
          <mxGeometry x="780" y="150" width="120" height="60" as="geometry" />
        </mxCell>
        <mxCell id="5MIrh7B_1ySHlBS4qivb-36" value="+ " style="text;strokeColor=none;fillColor=none;align=left;verticalAlign=top;spacingLeft=4;spacingRight=4;overflow=hidden;rotatable=0;points=[[0,0.5],[1,0.5]];portConstraint=eastwest;" vertex="1" parent="5MIrh7B_1ySHlBS4qivb-35">
          <mxGeometry y="26" width="120" height="26" as="geometry" />
        </mxCell>
        <mxCell id="5MIrh7B_1ySHlBS4qivb-37" value="" style="line;strokeWidth=1;fillColor=none;align=left;verticalAlign=middle;spacingTop=-1;spacingLeft=3;spacingRight=3;rotatable=0;labelPosition=right;points=[];portConstraint=eastwest;" vertex="1" parent="5MIrh7B_1ySHlBS4qivb-35">
          <mxGeometry y="52" width="120" height="8" as="geometry" />
        </mxCell>
        <mxCell id="5MIrh7B_1ySHlBS4qivb-40" value="软件&#xa;" style="swimlane;fontStyle=1;align=center;verticalAlign=top;childLayout=stackLayout;horizontal=1;startSize=26;horizontalStack=0;resizeParent=1;resizeParentMax=0;resizeLast=0;collapsible=1;marginBottom=0;" vertex="1" parent="1">
          <mxGeometry x="640" y="40" width="120" height="60" as="geometry" />
        </mxCell>
        <mxCell id="5MIrh7B_1ySHlBS4qivb-41" value="+ " style="text;strokeColor=none;fillColor=none;align=left;verticalAlign=top;spacingLeft=4;spacingRight=4;overflow=hidden;rotatable=0;points=[[0,0.5],[1,0.5]];portConstraint=eastwest;" vertex="1" parent="5MIrh7B_1ySHlBS4qivb-40">
          <mxGeometry y="26" width="120" height="26" as="geometry" />
        </mxCell>
        <mxCell id="5MIrh7B_1ySHlBS4qivb-42" value="" style="line;strokeWidth=1;fillColor=none;align=left;verticalAlign=middle;spacingTop=-1;spacingLeft=3;spacingRight=3;rotatable=0;labelPosition=right;points=[];portConstraint=eastwest;" vertex="1" parent="5MIrh7B_1ySHlBS4qivb-40">
          <mxGeometry y="52" width="120" height="8" as="geometry" />
        </mxCell>
        <mxCell id="5MIrh7B_1ySHlBS4qivb-59" style="edgeStyle=orthogonalEdgeStyle;rounded=0;orthogonalLoop=1;jettySize=auto;html=1;exitX=0.5;exitY=0;exitDx=0;exitDy=0;entryX=0.5;entryY=1;entryDx=0;entryDy=0;startArrow=none;startFill=0;endArrow=block;endFill=0;" edge="1" parent="1" source="5MIrh7B_1ySHlBS4qivb-45" target="5MIrh7B_1ySHlBS4qivb-32">
          <mxGeometry relative="1" as="geometry" />
        </mxCell>
        <mxCell id="5MIrh7B_1ySHlBS4qivb-45" value="Windows图片处理器" style="swimlane;fontStyle=1;align=center;verticalAlign=top;childLayout=stackLayout;horizontal=1;startSize=26;horizontalStack=0;resizeParent=1;resizeParentMax=0;resizeLast=0;collapsible=1;marginBottom=0;" vertex="1" parent="1">
          <mxGeometry x="400" y="270" width="120" height="60" as="geometry" />
        </mxCell>
        <mxCell id="5MIrh7B_1ySHlBS4qivb-46" value="+ " style="text;strokeColor=none;fillColor=none;align=left;verticalAlign=top;spacingLeft=4;spacingRight=4;overflow=hidden;rotatable=0;points=[[0,0.5],[1,0.5]];portConstraint=eastwest;" vertex="1" parent="5MIrh7B_1ySHlBS4qivb-45">
          <mxGeometry y="26" width="120" height="26" as="geometry" />
        </mxCell>
        <mxCell id="5MIrh7B_1ySHlBS4qivb-47" value="" style="line;strokeWidth=1;fillColor=none;align=left;verticalAlign=middle;spacingTop=-1;spacingLeft=3;spacingRight=3;rotatable=0;labelPosition=right;points=[];portConstraint=eastwest;" vertex="1" parent="5MIrh7B_1ySHlBS4qivb-45">
          <mxGeometry y="52" width="120" height="8" as="geometry" />
        </mxCell>
        <mxCell id="5MIrh7B_1ySHlBS4qivb-60" style="edgeStyle=orthogonalEdgeStyle;rounded=0;orthogonalLoop=1;jettySize=auto;html=1;exitX=0.5;exitY=0;exitDx=0;exitDy=0;startArrow=none;startFill=0;endArrow=block;endFill=0;" edge="1" parent="1" source="5MIrh7B_1ySHlBS4qivb-48">
          <mxGeometry relative="1" as="geometry">
            <mxPoint x="540" y="210" as="targetPoint" />
          </mxGeometry>
        </mxCell>
        <mxCell id="5MIrh7B_1ySHlBS4qivb-48" value="Linux图片处理器" style="swimlane;fontStyle=1;align=center;verticalAlign=top;childLayout=stackLayout;horizontal=1;startSize=26;horizontalStack=0;resizeParent=1;resizeParentMax=0;resizeLast=0;collapsible=1;marginBottom=0;" vertex="1" parent="1">
          <mxGeometry x="560" y="270" width="120" height="60" as="geometry" />
        </mxCell>
        <mxCell id="5MIrh7B_1ySHlBS4qivb-49" value="+ " style="text;strokeColor=none;fillColor=none;align=left;verticalAlign=top;spacingLeft=4;spacingRight=4;overflow=hidden;rotatable=0;points=[[0,0.5],[1,0.5]];portConstraint=eastwest;" vertex="1" parent="5MIrh7B_1ySHlBS4qivb-48">
          <mxGeometry y="26" width="120" height="26" as="geometry" />
        </mxCell>
        <mxCell id="5MIrh7B_1ySHlBS4qivb-50" value="" style="line;strokeWidth=1;fillColor=none;align=left;verticalAlign=middle;spacingTop=-1;spacingLeft=3;spacingRight=3;rotatable=0;labelPosition=right;points=[];portConstraint=eastwest;" vertex="1" parent="5MIrh7B_1ySHlBS4qivb-48">
          <mxGeometry y="52" width="120" height="8" as="geometry" />
        </mxCell>
        <mxCell id="5MIrh7B_1ySHlBS4qivb-57" style="edgeStyle=orthogonalEdgeStyle;rounded=0;orthogonalLoop=1;jettySize=auto;html=1;exitX=0.5;exitY=0;exitDx=0;exitDy=0;entryX=0.5;entryY=1;entryDx=0;entryDy=0;startArrow=none;startFill=0;endArrow=block;endFill=0;" edge="1" parent="1" source="5MIrh7B_1ySHlBS4qivb-51" target="5MIrh7B_1ySHlBS4qivb-35">
          <mxGeometry relative="1" as="geometry" />
        </mxCell>
        <mxCell id="5MIrh7B_1ySHlBS4qivb-51" value="Windows文本编辑器" style="swimlane;fontStyle=1;align=center;verticalAlign=top;childLayout=stackLayout;horizontal=1;startSize=26;horizontalStack=0;resizeParent=1;resizeParentMax=0;resizeLast=0;collapsible=1;marginBottom=0;" vertex="1" parent="1">
          <mxGeometry x="720" y="270" width="120" height="60" as="geometry" />
        </mxCell>
        <mxCell id="5MIrh7B_1ySHlBS4qivb-52" value="+ " style="text;strokeColor=none;fillColor=none;align=left;verticalAlign=top;spacingLeft=4;spacingRight=4;overflow=hidden;rotatable=0;points=[[0,0.5],[1,0.5]];portConstraint=eastwest;" vertex="1" parent="5MIrh7B_1ySHlBS4qivb-51">
          <mxGeometry y="26" width="120" height="26" as="geometry" />
        </mxCell>
        <mxCell id="5MIrh7B_1ySHlBS4qivb-53" value="" style="line;strokeWidth=1;fillColor=none;align=left;verticalAlign=middle;spacingTop=-1;spacingLeft=3;spacingRight=3;rotatable=0;labelPosition=right;points=[];portConstraint=eastwest;" vertex="1" parent="5MIrh7B_1ySHlBS4qivb-51">
          <mxGeometry y="52" width="120" height="8" as="geometry" />
        </mxCell>
        <mxCell id="5MIrh7B_1ySHlBS4qivb-58" style="edgeStyle=orthogonalEdgeStyle;rounded=0;orthogonalLoop=1;jettySize=auto;html=1;entryX=0.5;entryY=1;entryDx=0;entryDy=0;entryPerimeter=0;startArrow=none;startFill=0;endArrow=block;endFill=0;" edge="1" parent="1" source="5MIrh7B_1ySHlBS4qivb-54" target="5MIrh7B_1ySHlBS4qivb-37">
          <mxGeometry relative="1" as="geometry" />
        </mxCell>
        <mxCell id="5MIrh7B_1ySHlBS4qivb-54" value="Linux文本编辑器" style="swimlane;fontStyle=1;align=center;verticalAlign=top;childLayout=stackLayout;horizontal=1;startSize=26;horizontalStack=0;resizeParent=1;resizeParentMax=0;resizeLast=0;collapsible=1;marginBottom=0;" vertex="1" parent="1">
          <mxGeometry x="880" y="270" width="120" height="60" as="geometry" />
        </mxCell>
        <mxCell id="5MIrh7B_1ySHlBS4qivb-55" value="+ " style="text;strokeColor=none;fillColor=none;align=left;verticalAlign=top;spacingLeft=4;spacingRight=4;overflow=hidden;rotatable=0;points=[[0,0.5],[1,0.5]];portConstraint=eastwest;" vertex="1" parent="5MIrh7B_1ySHlBS4qivb-54">
          <mxGeometry y="26" width="120" height="26" as="geometry" />
        </mxCell>
        <mxCell id="5MIrh7B_1ySHlBS4qivb-56" value="" style="line;strokeWidth=1;fillColor=none;align=left;verticalAlign=middle;spacingTop=-1;spacingLeft=3;spacingRight=3;rotatable=0;labelPosition=right;points=[];portConstraint=eastwest;" vertex="1" parent="5MIrh7B_1ySHlBS4qivb-54">
          <mxGeometry y="52" width="120" height="8" as="geometry" />
        </mxCell>
        <mxCell id="5MIrh7B_1ySHlBS4qivb-61" value="按照操作系统进行软件分类" style="label;fontStyle=1;strokeColor=none;fillColor=none;align=left;verticalAlign=top;overflow=hidden;spacingLeft=28;spacingRight=4;rotatable=0;points=[[0,0.5],[1,0.5]];portConstraint=eastwest;imageWidth=16;imageHeight=16;image=img/clipart/Gear_128x128.png;fontSize=14;" vertex="1" parent="1">
          <mxGeometry x="-560" width="240" height="26" as="geometry" />
        </mxCell>
        <mxCell id="5MIrh7B_1ySHlBS4qivb-62" value="按照软件类型进行软件分类" style="label;fontStyle=1;strokeColor=none;fillColor=none;align=left;verticalAlign=top;overflow=hidden;spacingLeft=28;spacingRight=4;rotatable=0;points=[[0,0.5],[1,0.5]];portConstraint=eastwest;imageWidth=16;imageHeight=16;image=img/clipart/Gear_128x128.png;fontSize=14;" vertex="1" parent="1">
          <mxGeometry x="400" width="240" height="26" as="geometry" />
        </mxCell>
        <mxCell id="5MIrh7B_1ySHlBS4qivb-63" value="操作系统" style="swimlane;fontStyle=1;align=center;verticalAlign=top;childLayout=stackLayout;horizontal=1;startSize=26;horizontalStack=0;resizeParent=1;resizeParentMax=0;resizeLast=0;collapsible=1;marginBottom=0;" vertex="1" parent="1">
          <mxGeometry x="80" y="460" width="120" height="60" as="geometry" />
        </mxCell>
        <mxCell id="5MIrh7B_1ySHlBS4qivb-64" value="+ " style="text;strokeColor=none;fillColor=none;align=left;verticalAlign=top;spacingLeft=4;spacingRight=4;overflow=hidden;rotatable=0;points=[[0,0.5],[1,0.5]];portConstraint=eastwest;" vertex="1" parent="5MIrh7B_1ySHlBS4qivb-63">
          <mxGeometry y="26" width="120" height="26" as="geometry" />
        </mxCell>
        <mxCell id="5MIrh7B_1ySHlBS4qivb-65" value="" style="line;strokeWidth=1;fillColor=none;align=left;verticalAlign=middle;spacingTop=-1;spacingLeft=3;spacingRight=3;rotatable=0;labelPosition=right;points=[];portConstraint=eastwest;" vertex="1" parent="5MIrh7B_1ySHlBS4qivb-63">
          <mxGeometry y="52" width="120" height="8" as="geometry" />
        </mxCell>
        <mxCell id="5MIrh7B_1ySHlBS4qivb-83" style="edgeStyle=orthogonalEdgeStyle;rounded=0;orthogonalLoop=1;jettySize=auto;html=1;exitX=0.5;exitY=0;exitDx=0;exitDy=0;entryX=0.5;entryY=1;entryDx=0;entryDy=0;startArrow=none;startFill=0;endArrow=block;endFill=0;" edge="1" parent="1" source="5MIrh7B_1ySHlBS4qivb-66" target="5MIrh7B_1ySHlBS4qivb-63">
          <mxGeometry relative="1" as="geometry" />
        </mxCell>
        <mxCell id="5MIrh7B_1ySHlBS4qivb-66" value="Windows" style="swimlane;fontStyle=1;align=center;verticalAlign=top;childLayout=stackLayout;horizontal=1;startSize=26;horizontalStack=0;resizeParent=1;resizeParentMax=0;resizeLast=0;collapsible=1;marginBottom=0;" vertex="1" parent="1">
          <mxGeometry y="585" width="120" height="60" as="geometry" />
        </mxCell>
        <mxCell id="5MIrh7B_1ySHlBS4qivb-67" value="+ " style="text;strokeColor=none;fillColor=none;align=left;verticalAlign=top;spacingLeft=4;spacingRight=4;overflow=hidden;rotatable=0;points=[[0,0.5],[1,0.5]];portConstraint=eastwest;" vertex="1" parent="5MIrh7B_1ySHlBS4qivb-66">
          <mxGeometry y="26" width="120" height="26" as="geometry" />
        </mxCell>
        <mxCell id="5MIrh7B_1ySHlBS4qivb-68" value="" style="line;strokeWidth=1;fillColor=none;align=left;verticalAlign=middle;spacingTop=-1;spacingLeft=3;spacingRight=3;rotatable=0;labelPosition=right;points=[];portConstraint=eastwest;" vertex="1" parent="5MIrh7B_1ySHlBS4qivb-66">
          <mxGeometry y="52" width="120" height="8" as="geometry" />
        </mxCell>
        <mxCell id="5MIrh7B_1ySHlBS4qivb-84" style="edgeStyle=orthogonalEdgeStyle;rounded=0;orthogonalLoop=1;jettySize=auto;html=1;exitX=0.5;exitY=0;exitDx=0;exitDy=0;startArrow=none;startFill=0;endArrow=block;endFill=0;" edge="1" parent="1" source="5MIrh7B_1ySHlBS4qivb-69">
          <mxGeometry relative="1" as="geometry">
            <mxPoint x="140" y="520" as="targetPoint" />
          </mxGeometry>
        </mxCell>
        <mxCell id="5MIrh7B_1ySHlBS4qivb-69" value="Linux" style="swimlane;fontStyle=1;align=center;verticalAlign=top;childLayout=stackLayout;horizontal=1;startSize=26;horizontalStack=0;resizeParent=1;resizeParentMax=0;resizeLast=0;collapsible=1;marginBottom=0;" vertex="1" parent="1">
          <mxGeometry x="160" y="585" width="120" height="60" as="geometry" />
        </mxCell>
        <mxCell id="5MIrh7B_1ySHlBS4qivb-70" value="+ " style="text;strokeColor=none;fillColor=none;align=left;verticalAlign=top;spacingLeft=4;spacingRight=4;overflow=hidden;rotatable=0;points=[[0,0.5],[1,0.5]];portConstraint=eastwest;" vertex="1" parent="5MIrh7B_1ySHlBS4qivb-69">
          <mxGeometry y="26" width="120" height="26" as="geometry" />
        </mxCell>
        <mxCell id="5MIrh7B_1ySHlBS4qivb-71" value="" style="line;strokeWidth=1;fillColor=none;align=left;verticalAlign=middle;spacingTop=-1;spacingLeft=3;spacingRight=3;rotatable=0;labelPosition=right;points=[];portConstraint=eastwest;" vertex="1" parent="5MIrh7B_1ySHlBS4qivb-69">
          <mxGeometry y="52" width="120" height="8" as="geometry" />
        </mxCell>
        <mxCell id="5MIrh7B_1ySHlBS4qivb-72" value="软件&#xa;" style="swimlane;fontStyle=1;align=center;verticalAlign=top;childLayout=stackLayout;horizontal=1;startSize=26;horizontalStack=0;resizeParent=1;resizeParentMax=0;resizeLast=0;collapsible=1;marginBottom=0;" vertex="1" parent="1">
          <mxGeometry x="410" y="460" width="120" height="60" as="geometry" />
        </mxCell>
        <mxCell id="5MIrh7B_1ySHlBS4qivb-73" value="+ " style="text;strokeColor=none;fillColor=none;align=left;verticalAlign=top;spacingLeft=4;spacingRight=4;overflow=hidden;rotatable=0;points=[[0,0.5],[1,0.5]];portConstraint=eastwest;" vertex="1" parent="5MIrh7B_1ySHlBS4qivb-72">
          <mxGeometry y="26" width="120" height="26" as="geometry" />
        </mxCell>
        <mxCell id="5MIrh7B_1ySHlBS4qivb-74" value="" style="line;strokeWidth=1;fillColor=none;align=left;verticalAlign=middle;spacingTop=-1;spacingLeft=3;spacingRight=3;rotatable=0;labelPosition=right;points=[];portConstraint=eastwest;" vertex="1" parent="5MIrh7B_1ySHlBS4qivb-72">
          <mxGeometry y="52" width="120" height="8" as="geometry" />
        </mxCell>
        <mxCell id="5MIrh7B_1ySHlBS4qivb-81" style="edgeStyle=orthogonalEdgeStyle;rounded=0;orthogonalLoop=1;jettySize=auto;html=1;exitX=0.5;exitY=0;exitDx=0;exitDy=0;entryX=0.5;entryY=1;entryDx=0;entryDy=0;startArrow=none;startFill=0;endArrow=block;endFill=0;" edge="1" parent="1" source="5MIrh7B_1ySHlBS4qivb-75" target="5MIrh7B_1ySHlBS4qivb-72">
          <mxGeometry relative="1" as="geometry" />
        </mxCell>
        <mxCell id="5MIrh7B_1ySHlBS4qivb-75" value="图片处理器" style="swimlane;fontStyle=1;align=center;verticalAlign=top;childLayout=stackLayout;horizontal=1;startSize=26;horizontalStack=0;resizeParent=1;resizeParentMax=0;resizeLast=0;collapsible=1;marginBottom=0;" vertex="1" parent="1">
          <mxGeometry x="320" y="585" width="120" height="60" as="geometry" />
        </mxCell>
        <mxCell id="5MIrh7B_1ySHlBS4qivb-76" value="+ " style="text;strokeColor=none;fillColor=none;align=left;verticalAlign=top;spacingLeft=4;spacingRight=4;overflow=hidden;rotatable=0;points=[[0,0.5],[1,0.5]];portConstraint=eastwest;" vertex="1" parent="5MIrh7B_1ySHlBS4qivb-75">
          <mxGeometry y="26" width="120" height="26" as="geometry" />
        </mxCell>
        <mxCell id="5MIrh7B_1ySHlBS4qivb-77" value="" style="line;strokeWidth=1;fillColor=none;align=left;verticalAlign=middle;spacingTop=-1;spacingLeft=3;spacingRight=3;rotatable=0;labelPosition=right;points=[];portConstraint=eastwest;" vertex="1" parent="5MIrh7B_1ySHlBS4qivb-75">
          <mxGeometry y="52" width="120" height="8" as="geometry" />
        </mxCell>
        <mxCell id="5MIrh7B_1ySHlBS4qivb-82" style="edgeStyle=orthogonalEdgeStyle;rounded=0;orthogonalLoop=1;jettySize=auto;html=1;exitX=0.5;exitY=0;exitDx=0;exitDy=0;startArrow=none;startFill=0;endArrow=block;endFill=0;" edge="1" parent="1" source="5MIrh7B_1ySHlBS4qivb-78">
          <mxGeometry relative="1" as="geometry">
            <mxPoint x="470" y="520" as="targetPoint" />
          </mxGeometry>
        </mxCell>
        <mxCell id="5MIrh7B_1ySHlBS4qivb-78" value="文本编辑器" style="swimlane;fontStyle=1;align=center;verticalAlign=top;childLayout=stackLayout;horizontal=1;startSize=26;horizontalStack=0;resizeParent=1;resizeParentMax=0;resizeLast=0;collapsible=1;marginBottom=0;" vertex="1" parent="1">
          <mxGeometry x="480" y="585" width="120" height="60" as="geometry" />
        </mxCell>
        <mxCell id="5MIrh7B_1ySHlBS4qivb-79" value="+ " style="text;strokeColor=none;fillColor=none;align=left;verticalAlign=top;spacingLeft=4;spacingRight=4;overflow=hidden;rotatable=0;points=[[0,0.5],[1,0.5]];portConstraint=eastwest;" vertex="1" parent="5MIrh7B_1ySHlBS4qivb-78">
          <mxGeometry y="26" width="120" height="26" as="geometry" />
        </mxCell>
        <mxCell id="5MIrh7B_1ySHlBS4qivb-80" value="" style="line;strokeWidth=1;fillColor=none;align=left;verticalAlign=middle;spacingTop=-1;spacingLeft=3;spacingRight=3;rotatable=0;labelPosition=right;points=[];portConstraint=eastwest;" vertex="1" parent="5MIrh7B_1ySHlBS4qivb-78">
          <mxGeometry y="52" width="120" height="8" as="geometry" />
        </mxCell>
        <mxCell id="5MIrh7B_1ySHlBS4qivb-85" style="edgeStyle=orthogonalEdgeStyle;rounded=0;orthogonalLoop=1;jettySize=auto;html=1;exitX=1;exitY=0.5;exitDx=0;exitDy=0;entryX=0;entryY=0.5;entryDx=0;entryDy=0;startArrow=diamond;startFill=0;endArrow=none;endFill=0;" edge="1" parent="1" source="5MIrh7B_1ySHlBS4qivb-64" target="5MIrh7B_1ySHlBS4qivb-73">
          <mxGeometry relative="1" as="geometry" />
        </mxCell>
        <mxCell id="5MIrh7B_1ySHlBS4qivb-87" value="桥" style="edgeLabel;html=1;align=center;verticalAlign=middle;resizable=0;points=[];" vertex="1" connectable="0" parent="5MIrh7B_1ySHlBS4qivb-85">
          <mxGeometry x="-0.1238" y="1" relative="1" as="geometry">
            <mxPoint y="-8" as="offset" />
          </mxGeometry>
        </mxCell>
        <mxCell id="5MIrh7B_1ySHlBS4qivb-88" value="" style="shape=flexArrow;endArrow=classic;html=1;rounded=0;endWidth=18;endSize=7.67;" edge="1" parent="1">
          <mxGeometry width="50" height="50" relative="1" as="geometry">
            <mxPoint x="290" y="360" as="sourcePoint" />
            <mxPoint x="290" y="440" as="targetPoint" />
          </mxGeometry>
        </mxCell>
        <mxCell id="5MIrh7B_1ySHlBS4qivb-89" value="&lt;font size=&quot;1&quot;&gt;&lt;b style=&quot;font-size: 16px&quot;&gt;桥接模式改造，避免类继承爆炸式膨胀&lt;/b&gt;&lt;/font&gt;" style="text;html=1;strokeColor=none;fillColor=none;align=left;verticalAlign=middle;whiteSpace=wrap;rounded=0;" vertex="1" parent="1">
          <mxGeometry x="310" y="370" width="290" height="30" as="geometry" />
        </mxCell>
        <mxCell id="5MIrh7B_1ySHlBS4qivb-103" style="edgeStyle=orthogonalEdgeStyle;rounded=0;orthogonalLoop=1;jettySize=auto;html=1;fontSize=14;startArrow=none;startFill=0;endArrow=block;endFill=0;" edge="1" parent="1">
          <mxGeometry relative="1" as="geometry">
            <mxPoint x="90" y="100" as="targetPoint" />
            <mxPoint x="-370" y="154" as="sourcePoint" />
            <Array as="points">
              <mxPoint x="-370" y="124" />
              <mxPoint x="90" y="124" />
            </Array>
          </mxGeometry>
        </mxCell>
        <mxCell id="5MIrh7B_1ySHlBS4qivb-90" value="Mac" style="swimlane;fontStyle=1;align=center;verticalAlign=top;childLayout=stackLayout;horizontal=1;startSize=26;horizontalStack=0;resizeParent=1;resizeParentMax=0;resizeLast=0;collapsible=1;marginBottom=0;" vertex="1" parent="1">
          <mxGeometry x="-430" y="150" width="120" height="60" as="geometry" />
        </mxCell>
        <mxCell id="5MIrh7B_1ySHlBS4qivb-91" value="+ " style="text;strokeColor=none;fillColor=none;align=left;verticalAlign=top;spacingLeft=4;spacingRight=4;overflow=hidden;rotatable=0;points=[[0,0.5],[1,0.5]];portConstraint=eastwest;" vertex="1" parent="5MIrh7B_1ySHlBS4qivb-90">
          <mxGeometry y="26" width="120" height="26" as="geometry" />
        </mxCell>
        <mxCell id="5MIrh7B_1ySHlBS4qivb-92" value="" style="line;strokeWidth=1;fillColor=none;align=left;verticalAlign=middle;spacingTop=-1;spacingLeft=3;spacingRight=3;rotatable=0;labelPosition=right;points=[];portConstraint=eastwest;" vertex="1" parent="5MIrh7B_1ySHlBS4qivb-90">
          <mxGeometry y="52" width="120" height="8" as="geometry" />
        </mxCell>
        <mxCell id="5MIrh7B_1ySHlBS4qivb-93" style="edgeStyle=orthogonalEdgeStyle;rounded=0;orthogonalLoop=1;jettySize=auto;html=1;exitX=0.5;exitY=0;exitDx=0;exitDy=0;entryX=0.5;entryY=1;entryDx=0;entryDy=0;startArrow=none;startFill=0;endArrow=block;endFill=0;" edge="1" parent="1" source="5MIrh7B_1ySHlBS4qivb-94" target="5MIrh7B_1ySHlBS4qivb-90">
          <mxGeometry relative="1" as="geometry" />
        </mxCell>
        <mxCell id="5MIrh7B_1ySHlBS4qivb-94" value="Mac图片处理器" style="swimlane;fontStyle=1;align=center;verticalAlign=top;childLayout=stackLayout;horizontal=1;startSize=26;horizontalStack=0;resizeParent=1;resizeParentMax=0;resizeLast=0;collapsible=1;marginBottom=0;" vertex="1" parent="1">
          <mxGeometry x="-510" y="270" width="120" height="60" as="geometry" />
        </mxCell>
        <mxCell id="5MIrh7B_1ySHlBS4qivb-95" value="+ " style="text;strokeColor=none;fillColor=none;align=left;verticalAlign=top;spacingLeft=4;spacingRight=4;overflow=hidden;rotatable=0;points=[[0,0.5],[1,0.5]];portConstraint=eastwest;" vertex="1" parent="5MIrh7B_1ySHlBS4qivb-94">
          <mxGeometry y="26" width="120" height="26" as="geometry" />
        </mxCell>
        <mxCell id="5MIrh7B_1ySHlBS4qivb-96" value="" style="line;strokeWidth=1;fillColor=none;align=left;verticalAlign=middle;spacingTop=-1;spacingLeft=3;spacingRight=3;rotatable=0;labelPosition=right;points=[];portConstraint=eastwest;" vertex="1" parent="5MIrh7B_1ySHlBS4qivb-94">
          <mxGeometry y="52" width="120" height="8" as="geometry" />
        </mxCell>
        <mxCell id="5MIrh7B_1ySHlBS4qivb-97" style="edgeStyle=orthogonalEdgeStyle;rounded=0;orthogonalLoop=1;jettySize=auto;html=1;exitX=0.5;exitY=0;exitDx=0;exitDy=0;startArrow=none;startFill=0;endArrow=block;endFill=0;" edge="1" parent="1" source="5MIrh7B_1ySHlBS4qivb-98">
          <mxGeometry relative="1" as="geometry">
            <mxPoint x="-370" y="210" as="targetPoint" />
          </mxGeometry>
        </mxCell>
        <mxCell id="5MIrh7B_1ySHlBS4qivb-98" value="Mac文本编辑器" style="swimlane;fontStyle=1;align=center;verticalAlign=top;childLayout=stackLayout;horizontal=1;startSize=26;horizontalStack=0;resizeParent=1;resizeParentMax=0;resizeLast=0;collapsible=1;marginBottom=0;" vertex="1" parent="1">
          <mxGeometry x="-370" y="270" width="120" height="60" as="geometry" />
        </mxCell>
        <mxCell id="5MIrh7B_1ySHlBS4qivb-99" value="+ " style="text;strokeColor=none;fillColor=none;align=left;verticalAlign=top;spacingLeft=4;spacingRight=4;overflow=hidden;rotatable=0;points=[[0,0.5],[1,0.5]];portConstraint=eastwest;" vertex="1" parent="5MIrh7B_1ySHlBS4qivb-98">
          <mxGeometry y="26" width="120" height="26" as="geometry" />
        </mxCell>
        <mxCell id="5MIrh7B_1ySHlBS4qivb-100" value="" style="line;strokeWidth=1;fillColor=none;align=left;verticalAlign=middle;spacingTop=-1;spacingLeft=3;spacingRight=3;rotatable=0;labelPosition=right;points=[];portConstraint=eastwest;" vertex="1" parent="5MIrh7B_1ySHlBS4qivb-98">
          <mxGeometry y="52" width="120" height="8" as="geometry" />
        </mxCell>
        <mxCell id="5MIrh7B_1ySHlBS4qivb-102" value="" style="rounded=0;whiteSpace=wrap;html=1;fontSize=14;fillColor=none;dashed=1;strokeWidth=2;" vertex="1" parent="1">
          <mxGeometry x="-560" y="83" width="330" height="260" as="geometry" />
        </mxCell>
        <mxCell id="5MIrh7B_1ySHlBS4qivb-104" value="&lt;b&gt;&lt;font color=&quot;#ff0000&quot;&gt;新增一个操作系统，需要新增两个类&lt;/font&gt;&lt;/b&gt;" style="text;html=1;strokeColor=none;fillColor=none;align=center;verticalAlign=middle;whiteSpace=wrap;rounded=0;dashed=1;fontSize=14;" vertex="1" parent="1">
          <mxGeometry x="-550" y="92" width="270" height="30" as="geometry" />
        </mxCell>
        <mxCell id="5MIrh7B_1ySHlBS4qivb-116" style="edgeStyle=orthogonalEdgeStyle;rounded=0;orthogonalLoop=1;jettySize=auto;html=1;exitX=0.5;exitY=0;exitDx=0;exitDy=0;entryX=0.5;entryY=1;entryDx=0;entryDy=0;fontSize=14;fontColor=#FF0000;startArrow=none;startFill=0;endArrow=block;endFill=0;" edge="1" parent="1" source="5MIrh7B_1ySHlBS4qivb-105" target="5MIrh7B_1ySHlBS4qivb-40">
          <mxGeometry relative="1" as="geometry">
            <Array as="points">
              <mxPoint x="1160" y="125" />
              <mxPoint x="700" y="125" />
            </Array>
          </mxGeometry>
        </mxCell>
        <mxCell id="5MIrh7B_1ySHlBS4qivb-105" value="Office软件" style="swimlane;fontStyle=1;align=center;verticalAlign=top;childLayout=stackLayout;horizontal=1;startSize=26;horizontalStack=0;resizeParent=1;resizeParentMax=0;resizeLast=0;collapsible=1;marginBottom=0;" vertex="1" parent="1">
          <mxGeometry x="1100" y="150" width="120" height="60" as="geometry" />
        </mxCell>
        <mxCell id="5MIrh7B_1ySHlBS4qivb-106" value="+ " style="text;strokeColor=none;fillColor=none;align=left;verticalAlign=top;spacingLeft=4;spacingRight=4;overflow=hidden;rotatable=0;points=[[0,0.5],[1,0.5]];portConstraint=eastwest;" vertex="1" parent="5MIrh7B_1ySHlBS4qivb-105">
          <mxGeometry y="26" width="120" height="26" as="geometry" />
        </mxCell>
        <mxCell id="5MIrh7B_1ySHlBS4qivb-107" value="" style="line;strokeWidth=1;fillColor=none;align=left;verticalAlign=middle;spacingTop=-1;spacingLeft=3;spacingRight=3;rotatable=0;labelPosition=right;points=[];portConstraint=eastwest;" vertex="1" parent="5MIrh7B_1ySHlBS4qivb-105">
          <mxGeometry y="52" width="120" height="8" as="geometry" />
        </mxCell>
        <mxCell id="5MIrh7B_1ySHlBS4qivb-108" style="edgeStyle=orthogonalEdgeStyle;rounded=0;orthogonalLoop=1;jettySize=auto;html=1;exitX=0.5;exitY=0;exitDx=0;exitDy=0;entryX=0.5;entryY=1;entryDx=0;entryDy=0;startArrow=none;startFill=0;endArrow=block;endFill=0;" edge="1" parent="1" source="5MIrh7B_1ySHlBS4qivb-109" target="5MIrh7B_1ySHlBS4qivb-105">
          <mxGeometry relative="1" as="geometry" />
        </mxCell>
        <mxCell id="5MIrh7B_1ySHlBS4qivb-109" value="WindowsOffice软件" style="swimlane;fontStyle=1;align=center;verticalAlign=top;childLayout=stackLayout;horizontal=1;startSize=26;horizontalStack=0;resizeParent=1;resizeParentMax=0;resizeLast=0;collapsible=1;marginBottom=0;" vertex="1" parent="1">
          <mxGeometry x="1040" y="270" width="120" height="60" as="geometry" />
        </mxCell>
        <mxCell id="5MIrh7B_1ySHlBS4qivb-110" value="+ " style="text;strokeColor=none;fillColor=none;align=left;verticalAlign=top;spacingLeft=4;spacingRight=4;overflow=hidden;rotatable=0;points=[[0,0.5],[1,0.5]];portConstraint=eastwest;" vertex="1" parent="5MIrh7B_1ySHlBS4qivb-109">
          <mxGeometry y="26" width="120" height="26" as="geometry" />
        </mxCell>
        <mxCell id="5MIrh7B_1ySHlBS4qivb-111" value="" style="line;strokeWidth=1;fillColor=none;align=left;verticalAlign=middle;spacingTop=-1;spacingLeft=3;spacingRight=3;rotatable=0;labelPosition=right;points=[];portConstraint=eastwest;" vertex="1" parent="5MIrh7B_1ySHlBS4qivb-109">
          <mxGeometry y="52" width="120" height="8" as="geometry" />
        </mxCell>
        <mxCell id="5MIrh7B_1ySHlBS4qivb-112" style="edgeStyle=orthogonalEdgeStyle;rounded=0;orthogonalLoop=1;jettySize=auto;html=1;entryX=0.5;entryY=1;entryDx=0;entryDy=0;entryPerimeter=0;startArrow=none;startFill=0;endArrow=block;endFill=0;" edge="1" parent="1" source="5MIrh7B_1ySHlBS4qivb-113" target="5MIrh7B_1ySHlBS4qivb-107">
          <mxGeometry relative="1" as="geometry" />
        </mxCell>
        <mxCell id="5MIrh7B_1ySHlBS4qivb-113" value="LinuxOffice软件" style="swimlane;fontStyle=1;align=center;verticalAlign=top;childLayout=stackLayout;horizontal=1;startSize=26;horizontalStack=0;resizeParent=1;resizeParentMax=0;resizeLast=0;collapsible=1;marginBottom=0;" vertex="1" parent="1">
          <mxGeometry x="1200" y="270" width="120" height="60" as="geometry" />
        </mxCell>
        <mxCell id="5MIrh7B_1ySHlBS4qivb-114" value="+ " style="text;strokeColor=none;fillColor=none;align=left;verticalAlign=top;spacingLeft=4;spacingRight=4;overflow=hidden;rotatable=0;points=[[0,0.5],[1,0.5]];portConstraint=eastwest;" vertex="1" parent="5MIrh7B_1ySHlBS4qivb-113">
          <mxGeometry y="26" width="120" height="26" as="geometry" />
        </mxCell>
        <mxCell id="5MIrh7B_1ySHlBS4qivb-115" value="" style="line;strokeWidth=1;fillColor=none;align=left;verticalAlign=middle;spacingTop=-1;spacingLeft=3;spacingRight=3;rotatable=0;labelPosition=right;points=[];portConstraint=eastwest;" vertex="1" parent="5MIrh7B_1ySHlBS4qivb-113">
          <mxGeometry y="52" width="120" height="8" as="geometry" />
        </mxCell>
        <mxCell id="5MIrh7B_1ySHlBS4qivb-117" value="" style="rounded=0;whiteSpace=wrap;html=1;fontSize=14;fillColor=none;dashed=1;strokeWidth=2;" vertex="1" parent="1">
          <mxGeometry x="1010" y="83" width="330" height="260" as="geometry" />
        </mxCell>
        <mxCell id="5MIrh7B_1ySHlBS4qivb-118" value="&lt;b&gt;&lt;font color=&quot;#ff0000&quot;&gt;新增一个软件，需要新增两个类&lt;br&gt;系统更多增加类数目更多&lt;/font&gt;&lt;/b&gt;" style="text;html=1;strokeColor=none;fillColor=none;align=left;verticalAlign=middle;whiteSpace=wrap;rounded=0;dashed=1;fontSize=14;" vertex="1" parent="1">
          <mxGeometry x="1020" y="92" width="310" height="30" as="geometry" />
        </mxCell>
        <mxCell id="5MIrh7B_1ySHlBS4qivb-126" style="edgeStyle=orthogonalEdgeStyle;rounded=0;orthogonalLoop=1;jettySize=auto;html=1;exitX=0.5;exitY=0;exitDx=0;exitDy=0;fontSize=14;fontColor=#FF0000;startArrow=none;startFill=0;endArrow=block;endFill=0;" edge="1" parent="1" source="5MIrh7B_1ySHlBS4qivb-119">
          <mxGeometry relative="1" as="geometry">
            <mxPoint x="470" y="520" as="targetPoint" />
          </mxGeometry>
        </mxCell>
        <mxCell id="5MIrh7B_1ySHlBS4qivb-119" value="Office办公软件" style="swimlane;fontStyle=1;align=center;verticalAlign=top;childLayout=stackLayout;horizontal=1;startSize=26;horizontalStack=0;resizeParent=1;resizeParentMax=0;resizeLast=0;collapsible=1;marginBottom=0;" vertex="1" parent="1">
          <mxGeometry x="650" y="585" width="120" height="60" as="geometry" />
        </mxCell>
        <mxCell id="5MIrh7B_1ySHlBS4qivb-120" value="+ " style="text;strokeColor=none;fillColor=none;align=left;verticalAlign=top;spacingLeft=4;spacingRight=4;overflow=hidden;rotatable=0;points=[[0,0.5],[1,0.5]];portConstraint=eastwest;" vertex="1" parent="5MIrh7B_1ySHlBS4qivb-119">
          <mxGeometry y="26" width="120" height="26" as="geometry" />
        </mxCell>
        <mxCell id="5MIrh7B_1ySHlBS4qivb-121" value="" style="line;strokeWidth=1;fillColor=none;align=left;verticalAlign=middle;spacingTop=-1;spacingLeft=3;spacingRight=3;rotatable=0;labelPosition=right;points=[];portConstraint=eastwest;" vertex="1" parent="5MIrh7B_1ySHlBS4qivb-119">
          <mxGeometry y="52" width="120" height="8" as="geometry" />
        </mxCell>
        <mxCell id="5MIrh7B_1ySHlBS4qivb-125" style="edgeStyle=orthogonalEdgeStyle;rounded=0;orthogonalLoop=1;jettySize=auto;html=1;exitX=0.5;exitY=0;exitDx=0;exitDy=0;fontSize=14;fontColor=#FF0000;startArrow=none;startFill=0;endArrow=block;endFill=0;" edge="1" parent="1" source="5MIrh7B_1ySHlBS4qivb-122">
          <mxGeometry relative="1" as="geometry">
            <mxPoint x="140" y="520" as="targetPoint" />
          </mxGeometry>
        </mxCell>
        <mxCell id="5MIrh7B_1ySHlBS4qivb-122" value="Mac" style="swimlane;fontStyle=1;align=center;verticalAlign=top;childLayout=stackLayout;horizontal=1;startSize=26;horizontalStack=0;resizeParent=1;resizeParentMax=0;resizeLast=0;collapsible=1;marginBottom=0;" vertex="1" parent="1">
          <mxGeometry x="-160" y="585" width="120" height="60" as="geometry" />
        </mxCell>
        <mxCell id="5MIrh7B_1ySHlBS4qivb-123" value="+ " style="text;strokeColor=none;fillColor=none;align=left;verticalAlign=top;spacingLeft=4;spacingRight=4;overflow=hidden;rotatable=0;points=[[0,0.5],[1,0.5]];portConstraint=eastwest;" vertex="1" parent="5MIrh7B_1ySHlBS4qivb-122">
          <mxGeometry y="26" width="120" height="26" as="geometry" />
        </mxCell>
        <mxCell id="5MIrh7B_1ySHlBS4qivb-124" value="" style="line;strokeWidth=1;fillColor=none;align=left;verticalAlign=middle;spacingTop=-1;spacingLeft=3;spacingRight=3;rotatable=0;labelPosition=right;points=[];portConstraint=eastwest;" vertex="1" parent="5MIrh7B_1ySHlBS4qivb-122">
          <mxGeometry y="52" width="120" height="8" as="geometry" />
        </mxCell>
        <mxCell id="5MIrh7B_1ySHlBS4qivb-127" value="&lt;b&gt;&lt;font color=&quot;#ff0000&quot;&gt;新增一个操作系统，需要新增两个类&lt;/font&gt;&lt;/b&gt;" style="text;html=1;strokeColor=none;fillColor=none;align=center;verticalAlign=middle;whiteSpace=wrap;rounded=0;dashed=1;fontSize=14;" vertex="1" parent="1">
          <mxGeometry x="-550" y="92" width="270" height="30" as="geometry" />
        </mxCell>
        <mxCell id="5MIrh7B_1ySHlBS4qivb-128" value="" style="rounded=0;whiteSpace=wrap;html=1;fontSize=14;fillColor=none;dashed=1;strokeWidth=3;" vertex="1" parent="1">
          <mxGeometry x="-198" y="520" width="178" height="150" as="geometry" />
        </mxCell>
        <mxCell id="5MIrh7B_1ySHlBS4qivb-130" value="&lt;b&gt;&lt;font color=&quot;#ff0000&quot;&gt;新增一个操作系统&lt;/font&gt;&lt;/b&gt;" style="text;html=1;strokeColor=none;fillColor=none;align=left;verticalAlign=middle;whiteSpace=wrap;rounded=0;dashed=1;fontSize=14;" vertex="1" parent="1">
          <mxGeometry x="-193" y="520" width="168" height="30" as="geometry" />
        </mxCell>
        <mxCell id="5MIrh7B_1ySHlBS4qivb-131" value="" style="rounded=0;whiteSpace=wrap;html=1;fontSize=14;fillColor=none;dashed=1;strokeWidth=2;" vertex="1" parent="1">
          <mxGeometry x="640" y="520" width="178" height="140" as="geometry" />
        </mxCell>
        <mxCell id="5MIrh7B_1ySHlBS4qivb-132" value="&lt;b&gt;&lt;font color=&quot;#ff0000&quot;&gt;新增一个软件&lt;/font&gt;&lt;/b&gt;" style="text;html=1;strokeColor=none;fillColor=none;align=left;verticalAlign=middle;whiteSpace=wrap;rounded=0;dashed=1;fontSize=14;" vertex="1" parent="1">
          <mxGeometry x="645" y="520" width="168" height="30" as="geometry" />
        </mxCell>
      </root>
    </mxGraphModel>
  </diagram>
</mxfile>
